{
    "asset" : {
        "generator" : "Khronos glTF Blender I/O v1.2.75",
        "version" : "2.0"
    },
    "scene" : 0,
    "scenes" : [
        {
            "name" : "Scene",
            "nodes" : [
                0
            ]
        }
    ],
    "nodes" : [
        {
            "mesh" : 0,
            "name" : "Teapot",
            "rotation" : [
                0.7071070075035095,
                0,
                0,
                0.7071067094802856
            ],
            "scale" : [
                0.4000000059604645,
                0.4000000059604645,
                0.4000000059604645
            ],
            "translation" : [
                0,
                0.08735064417123795,
                0
            ]
        }
    ],
    "meshes" : [
        {
            "name" : "Teapot",
            "primitives" : [
                {
                    "attributes" : {
                        "POSITION" : 0,
                        "NORMAL" : 1
                    },
                    "indices" : 2
                }
            ]
        }
    ],
    "accessors" : [
        {
            "bufferView" : 0,
            "componentType" : 5126,
            "count" : 4713,
            "max" : [
                3.3942089080810547,
                2,
                1.7217199802398682
            ],
            "min" : [
                -3.0398330688476562,
                -2,
                -1.428279995918274
            ],
            "type" : "VEC3"
        },
        {
            "bufferView" : 1,
            "componentType" : 5126,
            "count" : 4713,
            "type" : "VEC3"
        },
        {
            "bufferView" : 2,
            "componentType" : 5123,
            "count" : 27384,
            "type" : "SCALAR"
        }
    ],
    "bufferViews" : [
        {
            "buffer" : 0,
            "byteLength" : 56556,
            "byteOffset" : 0
        },
        {
            "buffer" : 0,
            "byteLength" : 56556,
            "byteOffset" : 56556
        },
        {
            "buffer" : 0,
            "byteLength" : 54768,
            "byteOffset" : 113112
        }
    ],
    "buffers" : [
        {
            "byteLength" : 167880,
            "uri" : "data:application/octet-stream;base64,"
        }
    ]
}
